<svg xmlns="http://www.w3.org/2000/svg" width="800" height="400" viewBox="0 0 800 400">
  <defs>
    <style>
      .cls-1 {
        fill: #fff;
        fill-rule: evenodd;
      }
    </style>
  </defs>
  <path id="likr" class="cls-1" d="M256.11,270.242a12.039,12.039,0,0,0,9.521,4.2,12.661,12.661,0,0,0,9.717-4.052q3.757-4.052,3.76-12.159V142.6q0-8.1-3.711-12.158a12.619,12.619,0,0,0-9.766-4.052,12.093,12.093,0,0,0-9.619,4.1q-3.566,4.1-3.564,12.109V258.23Q252.448,266.045,256.11,270.242Zm73.388-100.2a12.767,12.767,0,0,0-9.668-4,12.305,12.305,0,0,0-9.521,4q-3.663,4.005-3.662,11.914V258.23q0,7.815,3.662,12.012a12.039,12.039,0,0,0,9.521,4.2,12.619,12.619,0,0,0,9.668-4.1q3.808-4.1,3.809-12.11V181.18Q333.307,174.052,329.5,170.047Zm-0.1-19.873q3.9-3.465,3.906-9.619,0-6.348-4-9.668a13.979,13.979,0,0,0-9.18-3.321,13.618,13.618,0,0,0-9.424,3.663,12.014,12.014,0,0,0-4.052,9.326q0,6.25,3.955,9.668a14.068,14.068,0,0,0,9.521,3.418A13.513,13.513,0,0,0,329.4,150.174Zm104.98,121.631q2.637,2.636,7.52,2.636a11.988,11.988,0,0,0,9.13-3.662q3.466-3.661,3.467-10.009a10.15,10.15,0,0,0-1.318-4.737q-1.319-2.49-4.346-7.275L421.49,205.789,435.651,192.8q10.839-9.765,10.839-15.625a10.554,10.554,0,0,0-3.32-7.959,11.543,11.543,0,0,0-8.3-3.174,11.733,11.733,0,0,0-7.129,2.148,73.845,73.845,0,0,0-8.5,8.008l-29.98,31.446V143q0-8.2-3.613-12.4a12.224,12.224,0,0,0-9.766-4.2,11.4,11.4,0,0,0-9.766,4.638q-3.419,4.64-3.418,13.526V258.23q0,8.01,3.516,12.11a12.061,12.061,0,0,0,9.668,4.1,12.68,12.68,0,0,0,9.326-4.15q4.051-4.149,4.053-11.865V237.234l14.453-13.671,23.535,38.671A63.613,63.613,0,0,0,434.381,271.805Zm68.359-56.2a63.77,63.77,0,0,1,2.832-14.4,19.74,19.74,0,0,1,5.762-9.131,14.5,14.5,0,0,1,9.57-3.076,32.946,32.946,0,0,1,9.913,1.807q5.614,1.807,7.08,1.806a10.452,10.452,0,0,0,7.275-3.173,10.588,10.588,0,0,0,3.369-8.057q0-6.933-7.91-11.133a34.387,34.387,0,0,0-16.309-4.2q-8.4,0-13.427,4.2t-9.815,12.4q-0.292-8.2-3.222-12.4t-9.571-4.2q-12.988,0-12.988,17.969V258.23q0,8.01,3.711,12.11a12.2,12.2,0,0,0,9.473,4.1,12.7,12.7,0,0,0,9.668-4.052q3.808-4.052,3.808-12.159V235.965Q501.959,223.953,502.74,215.6Z"/>
</svg>
